<?xml version="1.0" standalone="no"?>
<!DOCTYPE svg PUBLIC "-//W3C//DTD SVG 20010904//EN"
 "http://www.w3.org/TR/2001/REC-SVG-20010904/DTD/svg10.dtd">
<svg version="1.0" xmlns="http://www.w3.org/2000/svg"
 width="433.000000pt" height="577.000000pt" viewBox="0 0 433.000000 577.000000"
 preserveAspectRatio="xMidYMid meet">

<g transform="translate(0.000000,577.000000) scale(0.100000,-0.100000)"
fill="#000000" stroke="none">
<path d="M2149 4290 c-144 -22 -207 -62 -287 -180 -38 -57 -52 -148 -29 -183
13 -20 42 -130 42 -162 0 -5 -15 -10 -34 -10 -30 0 -35 -4 -42 -29 -17 -62 26
-174 69 -182 25 -5 31 -14 50 -77 12 -40 25 -104 28 -143 6 -65 4 -74 -20
-110 -35 -54 -41 -92 -26 -182 13 -74 44 -137 61 -126 5 3 6 -1 3 -9 -2 -7 4
-25 15 -38 l20 -24 -3 27 c-5 40 20 71 45 58 16 -9 19 -7 19 15 0 27 17 32 42
13 20 -15 26 -47 14 -68 -5 -8 2 -5 15 6 13 12 46 36 73 53 53 33 90 81 135
176 38 80 53 130 49 157 -3 18 -7 13 -18 -22 -17 -56 -60 -124 -81 -128 -11
-2 -18 7 -22 26 -4 19 -14 32 -29 36 -19 5 -21 8 -8 16 11 7 12 12 3 18 -8 5
6 16 38 31 28 12 53 30 56 39 4 9 19 33 33 52 26 34 50 99 50 134 0 14 -3 14
-22 -4 -31 -28 -82 -24 -86 8 -2 12 2 22 8 22 6 0 10 10 8 22 -2 17 -10 22
-38 23 -19 1 -39 -2 -45 -6 -5 -4 -25 -4 -44 -2 -19 3 -28 9 -21 13 8 5 7 11
-4 23 -23 22 -20 28 9 21 18 -4 27 -1 31 10 9 23 0 29 -38 28 -21 0 -41 7 -55
20 -25 23 -28 39 -14 66 23 43 64 153 58 158 -3 3 -11 7 -19 8 -46 10 -68 20
-68 33 0 11 -7 14 -25 11 -21 -4 -25 -1 -25 18 0 17 6 24 20 24 15 0 20 7 20
25 0 34 58 59 122 51 26 -3 61 -1 79 4 39 12 56 3 147 -71 6 -5 12 -19 12 -31
0 -12 8 -30 18 -41 13 -15 17 -37 17 -107 0 -48 4 -86 8 -83 14 9 57 82 57 98
0 8 8 15 19 15 31 0 68 37 75 75 9 44 -3 113 -15 93 -5 -7 -9 -8 -10 -3 -3 33
-10 50 -28 69 -11 12 -50 57 -85 100 -36 44 -73 81 -82 82 -9 1 -27 12 -40 25
-34 32 -86 37 -205 19z m-94 -584 c-17 -57 -28 -77 -54 -100 -27 -24 -42 -12
-59 47 -22 72 -16 81 53 88 33 3 63 6 67 7 3 1 0 -18 -7 -42z m195 -219 c37
-18 46 -27 48 -53 3 -27 -2 -34 -35 -51 -35 -18 -42 -19 -97 -6 -51 11 -96 38
-96 57 0 3 26 8 58 12 42 4 62 12 70 25 11 16 9 19 -10 20 -13 1 -32 1 -43 0
-17 -2 -17 0 -5 8 23 16 61 12 110 -12z"/>
<path d="M2197 3873 c-14 -13 -7 -84 8 -89 8 -4 15 -13 15 -21 0 -32 118 -56
128 -25 2 8 -2 10 -14 5 -12 -4 -15 -3 -10 5 4 7 20 12 37 12 30 0 38 17 17
38 -15 15 -32 16 -23 2 10 -16 -22 -11 -39 6 -24 24 -20 27 28 22 61 -7 75 10
28 33 -36 19 -160 27 -175 12z"/>
<path d="M2498 3680 c-32 -25 -38 -25 -39 -2 -1 16 -8 -9 -23 -83 -4 -16 -9
-37 -13 -45 -15 -36 -13 -50 8 -50 11 0 18 4 14 9 -3 5 -2 35 1 66 l7 56 21
-23 c18 -19 21 -20 24 -6 2 9 -1 26 -7 36 -6 11 -7 22 -4 26 13 13 32 5 38
-15 9 -27 28 -10 23 22 -4 31 -20 33 -50 9z"/>
<path d="M2320 2990 c-6 -11 -26 -30 -45 -43 -19 -13 -32 -27 -28 -30 3 -4 12
-2 20 5 7 6 16 8 19 5 9 -9 -51 -177 -114 -318 -33 -74 -72 -165 -87 -204 -15
-38 -36 -89 -47 -112 -10 -24 -23 -55 -29 -70 -46 -126 -57 -113 -70 82 -5 72
-13 164 -19 205 -32 236 -32 240 13 240 42 0 74 19 37 22 -14 1 -44 0 -66 -1
-23 -1 -45 2 -49 8 -34 57 -37 -98 -5 -284 51 -298 72 -396 92 -446 12 -30 24
-58 28 -62 4 -5 22 16 41 45 53 82 130 262 319 743 45 115 56 139 79 168 8 9
12 19 10 20 -2 2 -17 13 -33 25 -36 27 -52 28 -66 2z m-50 -260 c0 -11 -4 -20
-9 -20 -5 0 -7 9 -4 20 3 11 7 20 9 20 2 0 4 -9 4 -20z m-183 -425 c-1 -13 -6
-27 -9 -31 -4 -3 -5 2 -3 13 2 10 4 24 4 31 1 6 3 12 6 12 3 0 4 -11 2 -25z"/>
<path d="M2075 2880 c4 -6 11 -8 16 -5 14 9 11 15 -7 15 -8 0 -12 -5 -9 -10z"/>
<path d="M2026 2797 c3 -10 9 -15 12 -12 3 3 0 11 -7 18 -10 9 -11 8 -5 -6z"/>
<path d="M2768 2524 c-4 -19 4 -67 17 -111 6 -19 3 -23 -12 -23 -29 0 -35 -11
-18 -37 8 -12 22 -51 30 -85 7 -35 20 -82 26 -105 11 -37 11 -47 -4 -78 -21
-44 -22 -64 -2 -71 8 -3 20 -24 26 -46 5 -22 12 -38 15 -35 3 3 7 46 10 96 4
78 1 97 -16 132 -12 22 -23 61 -26 87 -19 210 -26 268 -34 281 -6 12 -9 11
-12 -5z"/>
<path d="M1498 2174 c-6 -5 11 -89 32 -164 18 -64 25 -30 10 52 -12 69 -32
122 -42 112z"/>
<path d="M2958 1923 c-19 -5 -31 -30 -18 -38 6 -4 23 2 40 11 21 13 26 20 17
26 -6 4 -14 7 -17 7 -3 -1 -12 -3 -22 -6z"/>
<path d="M1980 1887 c0 -8 7 -21 16 -28 14 -11 15 -10 12 11 -3 26 -28 41 -28
17z"/>
<path d="M1523 1872 c-28 -4 -29 -14 -3 -37 24 -21 33 -16 28 17 -2 17 -8 22
-25 20z"/>
<path d="M1550 1730 c-18 -11 -24 -108 -8 -127 20 -25 25 -13 27 62 1 41 0 75
-1 75 -2 0 -10 -5 -18 -10z"/>
<path d="M1935 1709 c-11 -16 -1 -19 13 -3 7 8 8 14 3 14 -5 0 -13 -5 -16 -11z"/>
<path d="M2788 1598 c-13 -13 -41 -32 -61 -43 -39 -21 -42 -32 -14 -49 13 -8
21 -6 34 7 13 13 15 20 6 25 -9 6 -6 11 8 21 12 7 18 8 15 3 -3 -6 1 -23 9
-38 13 -26 15 -27 15 -7 0 12 6 24 13 26 7 3 5 6 -5 6 -10 1 -18 6 -18 12 0 5
4 8 8 5 4 -2 14 -1 22 5 12 7 11 9 -5 10 -19 0 -19 1 2 11 17 8 29 6 55 -10
46 -29 98 -84 103 -111 5 -25 -33 -53 -99 -73 -21 -7 -40 -18 -43 -25 -4 -11
-9 -11 -23 2 -17 15 -21 14 -63 -17 -25 -18 -48 -42 -51 -53 -5 -18 -7 -18
-20 -5 -8 8 -30 42 -48 75 -41 73 -60 78 -167 42 -75 -26 -96 -37 -68 -37 9 0
17 -7 17 -15 0 -8 19 -39 43 -68 23 -28 49 -72 57 -96 13 -40 13 -44 -4 -57
-18 -13 -17 -14 9 -24 15 -6 37 -8 49 -4 45 14 96 45 90 55 -3 6 1 16 9 22 8
7 17 21 19 32 2 13 25 31 68 52 36 17 70 36 76 41 6 6 42 27 80 48 38 20 82
48 98 61 l29 24 -70 69 c-39 38 -87 76 -108 84 -46 19 -37 20 -67 -6z"/>
<path d="M1571 1533 c-1 -8 -15 -10 -49 -6 -79 9 -171 -46 -188 -113 -5 -19 3
-33 40 -68 25 -25 46 -50 46 -55 0 -5 14 -32 30 -58 39 -63 41 -112 6 -221
-29 -94 -31 -118 -15 -252 11 -91 10 -105 -25 -310 -38 -224 -54 -379 -42
-424 l6 -26 635 0 c349 0 635 1 636 3 0 1 4 78 9 172 4 94 15 199 23 235 32
138 49 314 42 447 -5 81 -3 150 4 187 6 33 9 61 6 64 -2 3 -15 -2 -27 -10 -40
-25 -131 -42 -281 -51 -22 -2 -33 -12 -55 -52 -15 -28 -44 -68 -65 -90 -20
-21 -37 -46 -37 -54 0 -8 -3 -11 -7 -8 -3 4 -16 1 -28 -7 -21 -14 -24 -12 -45
16 -15 21 -25 27 -30 18 -8 -13 -80 67 -80 89 0 9 -6 8 -21 -3 -12 -8 -28 -12
-37 -9 -12 5 -14 1 -8 -21 4 -17 0 -48 -10 -80 -21 -65 -32 -80 -50 -65 -14
11 -8 71 8 77 4 2 8 17 8 33 0 16 5 28 11 27 12 -3 13 -1 22 77 8 58 -2 85
-23 60 -7 -8 -18 -15 -25 -15 -6 0 -22 -32 -35 -71 -13 -39 -32 -79 -41 -91
-10 -11 -19 -24 -21 -30 -6 -16 -56 9 -63 32 -8 25 16 79 57 125 54 61 98 139
69 121 -14 -9 -61 33 -55 49 5 12 -6 14 -53 14 -56 -1 -94 -12 -157 -45 -23
-12 -31 -12 -37 -2 -12 19 10 38 43 38 26 0 29 3 25 20 -3 12 1 33 9 48 8 15
14 30 14 33 0 7 -72 42 -89 43 -18 1 -30 41 -40 141 -5 44 -9 75 -10 68z m-9
-227 c16 -12 16 -14 -7 -24 -25 -12 -37 -1 -27 26 5 15 12 15 34 -2z m64 -73
c-10 -11 -56 -11 -50 -1 3 4 17 8 31 8 15 0 23 -3 19 -7z m14 -42 c-19 -10
-34 -26 -34 -34 1 -9 -4 -13 -12 -10 -18 7 -17 8 2 38 12 18 25 25 47 25 l32
0 -35 -19z m-52 -86 c-11 -24 -28 -34 -28 -16 0 21 13 41 26 41 11 0 11 -5 2
-25z m184 -72 c26 -8 30 -33 10 -67 -15 -26 -25 -32 -60 -34 -50 -4 -53 7 -19
73 15 31 26 43 37 39 8 -4 23 -8 32 -11z m-225 -100 c-3 -10 -5 -2 -5 17 0 19
2 27 5 18 2 -10 2 -26 0 -35z"/>
<path d="M1728 1269 c-10 -6 -18 -22 -18 -37 0 -21 2 -24 10 -12 8 12 13 13
30 3 43 -27 51 -13 17 29 -17 21 -26 25 -39 17z"/>
<path d="M2085 1220 c-3 -5 -2 -10 4 -10 5 0 13 5 16 10 3 6 2 10 -4 10 -5 0
-13 -4 -16 -10z"/>
</g>
</svg>
